<?xml version="1.0" encoding="UTF-8" standalone="no"?><!DOCTYPE svg PUBLIC "-//W3C//DTD SVG 1.1//EN" "http://www.w3.org/Graphics/SVG/1.1/DTD/svg11.dtd"><svg width="100%" height="100%" viewBox="0 0 512 512" version="1.1" xmlns="http://www.w3.org/2000/svg" xmlns:xlink="http://www.w3.org/1999/xlink" xml:space="preserve" xmlns:serif="http://www.serif.com/" style="fill-rule:evenodd;clip-rule:evenodd;stroke-linejoin:round;stroke-miterlimit:2;"><path d="M50.084,372.826c17.783,-17.006 40.998,-19.829 41.164,-157.205c0,-36.902 10.454,-70.335 31.361,-100.298c20.907,-29.967 49.657,-49.394 86.25,-58.282l-0,-9.997c-0,-12.784 4.524,-23.818 13.566,-33.107c9.042,-9.289 20.049,-13.937 33.025,-13.937c0.184,0 0.367,0.001 0.55,0.003c0.183,-0.002 0.366,-0.003 0.55,-0.003c12.976,0 23.985,4.646 33.025,13.937c9.044,9.287 13.566,20.323 13.566,33.107l0,9.997c1.334,0.324 2.596,0.71 3.791,1.156c34.092,8.792 61.348,27.574 81.771,56.344c21.365,30.097 32.049,63.79 32.049,101.08c0.166,137.376 23.381,140.199 41.164,157.205l-0,62.333l-411.832,0l0,-62.333Zm205.795,139.174c-14.999,-0 -27.632,-5.22 -37.9,-15.66c-10.263,-10.444 -15.395,-22.997 -15.395,-37.659l106.832,0c-0,14.662 -5.132,27.215 -15.395,37.659c-10.268,10.44 -22.901,15.66 -37.9,15.66c-0.081,0 -0.161,0 -0.242,-0Z"/></svg>